<?xml version="1.0" standalone="no"?>
<!DOCTYPE svg PUBLIC "-//W3C//DTD SVG 20010904//EN"
 "http://www.w3.org/TR/2001/REC-SVG-20010904/DTD/svg10.dtd">
<svg version="1.0" xmlns="http://www.w3.org/2000/svg"
 width="1000.000000pt" height="1000.000000pt" viewBox="0 0 1000.000000 1000.000000"
 preserveAspectRatio="xMidYMid meet">
<metadata>
Created by potrace 1.11, written by Peter Selinger 2001-2013
</metadata>
<g transform="translate(0.000000,1000.000000) scale(0.100000,-0.100000)"
fill="#000000" stroke="none">
<path d="M5183 8915 c-6 -18 23 -44 48 -45 9 0 22 6 28 14 10 12 7 18 -18 30
-38 20 -50 20 -58 1z"/>
<path d="M4685 8868 c-35 -19 -65 -51 -65 -69 0 -25 24 -14 38 17 12 24 55 34
66 15 4 -5 19 -4 37 2 29 11 33 10 55 -18 13 -16 24 -35 24 -42 0 -20 -42 -43
-66 -37 -16 4 -26 0 -36 -15 -9 -15 -19 -19 -36 -14 -16 4 -33 -2 -52 -16 -16
-11 -32 -21 -35 -21 -3 0 -5 22 -5 50 0 38 -3 48 -14 44 -20 -8 -26 -49 -13
-91 10 -31 9 -37 -11 -51 -26 -21 -69 -84 -74 -109 -5 -29 -50 -28 -87 2 -24
21 -31 23 -31 11 0 -9 4 -16 9 -16 5 0 18 -19 30 -42 24 -50 17 -59 -44 -56
-22 1 -48 -2 -57 -6 -11 -5 -18 -4 -18 3 0 6 -11 16 -25 21 -17 6 -25 17 -25
34 0 30 -20 48 -40 36 -22 -14 -30 -12 -30 6 0 18 -29 48 -72 76 -20 13 -38
16 -71 12 -33 -5 -51 -2 -71 11 -23 16 -26 16 -26 1 0 -18 -35 -22 -46 -5 -7
12 15 31 28 23 4 -3 8 6 8 19 0 18 -7 27 -25 31 -33 8 -45 1 -45 -29 0 -17 -8
-26 -31 -34 -18 -6 -40 -11 -50 -11 -10 0 -24 -12 -31 -27 -22 -46 -54 -39
-60 12 -2 25 1 31 20 33 28 4 27 39 -1 56 -15 9 -22 7 -38 -13 -24 -29 -24
-77 -2 -147 9 -30 14 -57 10 -60 -13 -14 -35 6 -56 50 -11 25 -24 46 -27 46
-4 0 -4 -20 -1 -45 6 -38 3 -48 -18 -72 -13 -15 -25 -22 -25 -15 0 19 -18 14
-42 -13 -16 -18 -32 -25 -59 -25 -21 0 -41 5 -44 10 -9 14 -47 12 -69 -5 -13
-10 -24 -11 -36 -5 -9 5 -26 7 -37 4 -14 -4 -29 2 -42 15 -12 12 -30 21 -42
21 -18 0 -20 -4 -13 -47 3 -27 14 -56 22 -66 18 -20 18 -73 1 -94 -8 -8 -8
-22 -1 -40 10 -31 -2 -78 -18 -68 -5 3 -10 17 -10 30 0 37 -79 52 -99 18 -6
-11 -11 -13 -11 -5 0 7 -13 27 -28 43 -25 27 -32 29 -71 23 -39 -6 -45 -11
-63 -53 -12 -25 -20 -55 -20 -66 1 -11 -11 -30 -26 -42 -22 -17 -25 -25 -17
-40 6 -10 8 -34 5 -53 -6 -39 -16 -41 -81 -12 -26 11 -42 27 -54 54 -14 32
-21 38 -46 38 -34 0 -48 -22 -28 -46 8 -10 14 -46 15 -90 2 -63 -1 -75 -19
-93 -12 -11 -39 -36 -60 -56 l-38 -37 -44 21 c-47 22 -95 28 -95 11 0 -5 11
-10 25 -10 16 0 25 -6 25 -15 0 -21 -32 -19 -58 5 -12 11 -27 20 -35 20 -8 0
-24 -9 -37 -20 -19 -17 -20 -20 -6 -20 12 0 16 -7 14 -22 -4 -30 -38 -37 -45
-9 -3 12 -10 21 -17 21 -21 0 -76 -40 -76 -54 0 -22 16 -28 30 -11 7 8 27 15
44 15 25 0 34 -6 43 -27 7 -16 22 -40 33 -54 26 -32 34 -124 11 -124 -8 0 -18
14 -23 32 -13 50 -28 50 -28 0 0 -52 -6 -60 -32 -46 -32 17 -29 6 7 -33 l34
-36 51 15 c28 8 54 12 57 9 8 -7 -58 -62 -72 -59 -6 2 -55 -3 -109 -11 -78
-10 -102 -18 -115 -34 -9 -12 -36 -30 -61 -40 -58 -25 -74 -44 -65 -79 5 -24
11 -54 27 -147 2 -15 -5 -23 -27 -30 -16 -6 -36 -17 -43 -24 -8 -6 -22 -17
-33 -22 -10 -6 -19 -18 -19 -26 0 -13 7 -15 36 -10 30 6 36 4 41 -13 6 -24 49
-36 69 -20 8 7 12 20 9 30 -5 16 -1 19 27 19 18 0 42 -7 52 -15 11 -8 28 -15
37 -15 10 0 21 -5 25 -11 10 -16 -12 -33 -49 -36 -17 -2 -60 -6 -93 -9 -35 -4
-69 -2 -80 4 -23 13 -65 -2 -84 -31 -20 -31 -21 -168 -2 -183 8 -6 15 -19 16
-30 3 -22 13 -64 28 -117 10 -33 9 -40 -10 -57 -11 -11 -36 -28 -54 -38 -25
-14 -34 -26 -36 -50 -3 -29 -5 -31 -35 -25 -18 3 -48 15 -67 28 -54 34 -160
44 -160 14 0 -5 16 -9 35 -9 36 0 135 -45 135 -61 0 -5 11 -15 25 -21 30 -14
32 -39 5 -56 -12 -7 -18 -17 -15 -23 8 -13 -16 -112 -30 -121 -5 -4 -25 -5
-42 -2 -26 5 -33 3 -33 -10 0 -8 9 -20 21 -26 15 -9 19 -18 15 -35 -8 -31 10
-41 35 -19 18 16 19 16 19 -7 -1 -25 -31 -69 -48 -69 -6 0 -19 11 -30 25 -13
17 -22 21 -25 13 -3 -10 -10 -8 -25 6 -18 15 -24 16 -37 6 -8 -7 -15 -18 -15
-25 0 -7 -13 -18 -29 -23 -40 -14 -54 -45 -46 -99 5 -37 3 -47 -17 -68 -13
-14 -28 -25 -35 -25 -6 0 -13 -10 -15 -22 -3 -23 -71 -69 -119 -81 -33 -8 -36
-21 -33 -131 1 -53 -2 -96 -9 -107 -9 -14 -8 -27 2 -55 12 -33 11 -39 -8 -65
-12 -15 -21 -35 -21 -42 0 -8 -9 -26 -21 -41 -11 -14 -19 -34 -18 -43 2 -20
-5 -45 -27 -86 -7 -16 -14 -35 -14 -42 0 -21 -39 -82 -55 -89 -8 -3 -15 -14
-15 -24 0 -10 -9 -27 -20 -37 -14 -13 -20 -31 -20 -60 0 -26 -6 -48 -15 -55
-8 -7 -13 -15 -11 -19 2 -3 7 -30 10 -59 7 -66 12 -75 37 -67 14 5 17 2 13 -9
-3 -8 3 -23 15 -33 12 -9 21 -27 21 -40 0 -41 27 -40 44 2 2 6 8 6 16 -2 8 -7
10 -19 5 -30 -4 -10 -9 -34 -10 -53 -1 -19 -6 -45 -10 -57 -5 -15 -3 -23 4
-23 6 0 11 9 11 19 0 20 32 37 50 26 17 -10 11 -30 -15 -55 -45 -43 -23 -110
37 -110 14 0 37 -9 51 -20 14 -11 35 -20 46 -20 21 0 40 -25 28 -36 -13 -14
-96 -4 -137 15 -55 25 -141 28 -160 6 -11 -14 -10 -14 14 -5 31 12 70 5 106
-19 14 -8 34 -20 45 -26 32 -17 29 -43 -9 -85 -20 -22 -36 -44 -36 -50 0 -5
-17 -18 -39 -29 -33 -17 -51 -38 -51 -58 0 -3 11 2 25 11 39 26 62 21 69 -16
l7 -33 15 28 c17 31 22 32 52 11 21 -15 25 -15 43 2 17 15 17 19 5 33 -8 9
-16 25 -18 36 -2 11 -12 21 -23 23 -34 7 -38 19 -11 37 33 22 56 13 56 -20 0
-14 7 -28 15 -31 8 -4 15 -17 15 -31 0 -30 50 -83 79 -83 12 0 21 3 21 8 0 4
15 24 33 45 23 25 42 37 61 37 48 0 46 -61 -3 -68 -11 -2 -25 -11 -31 -21 -14
-27 -110 -38 -127 -16 -19 27 -33 8 -33 -45 0 -46 2 -50 28 -56 41 -10 53 -23
51 -58 -1 -17 2 -38 5 -47 11 -26 -12 -32 -25 -7 -14 29 -60 78 -71 78 -5 0
-27 -14 -48 -31 -59 -47 -62 -100 -12 -161 12 -15 12 -19 -2 -34 -10 -9 -16
-24 -14 -33 4 -17 17 -18 87 -6 42 8 43 7 36 -16 -4 -13 -21 -38 -38 -56 -30
-31 -31 -32 -65 -17 -24 9 -39 11 -45 5 -7 -7 -5 -13 7 -17 11 -4 15 -13 10
-26 -3 -11 0 -27 9 -36 25 -30 25 -47 2 -97 -25 -50 -24 -65 0 -65 8 0 22 -17
30 -37 16 -37 16 -38 -9 -58 -15 -12 -26 -29 -26 -39 0 -10 -10 -26 -22 -37
l-23 -19 44 7 45 6 -24 -39 c-30 -50 -47 -64 -81 -64 -15 0 -30 -4 -33 -8 -5
-9 46 -52 62 -52 17 0 44 -39 39 -54 -4 -9 6 -25 24 -41 27 -22 39 -25 110
-25 90 0 96 -7 48 -56 -55 -57 -21 -69 81 -29 75 29 108 31 126 8 11 -16 19
-12 78 51 50 53 67 66 71 54 4 -10 -2 -25 -15 -38 -16 -16 -21 -30 -17 -49 7
-33 0 -44 -39 -64 -33 -17 -54 -59 -54 -108 0 -29 -3 -33 -53 -70 -25 -19 -27
-24 -21 -70 l7 -49 -56 0 c-31 0 -58 -4 -61 -8 -3 -5 12 -25 34 -46 21 -20 40
-46 42 -58 2 -12 9 -23 16 -26 19 -6 14 16 -10 48 -26 36 -16 50 29 43 26 -4
32 -10 36 -36 2 -18 -1 -43 -9 -57 -7 -14 -24 -59 -39 -99 -25 -75 -57 -121
-82 -121 -7 0 -13 -4 -13 -10 0 -19 76 -11 95 10 23 25 45 26 45 1 0 -10 21
-39 48 -65 l47 -46 0 -103 0 -102 30 2 c17 1 64 4 105 7 102 6 233 25 244 36
13 13 -1 40 -22 40 -20 0 -79 57 -82 80 -8 59 18 67 50 15 23 -37 44 -45 54
-20 5 13 10 14 26 5 12 -6 34 -8 51 -5 21 5 29 3 29 -7 0 -19 -30 -101 -42
-116 -8 -9 -6 -18 8 -33 19 -22 33 -22 131 -3 43 8 52 -13 28 -67 l-18 -39 28
-30 c18 -19 43 -33 67 -37 21 -3 41 -10 44 -14 3 -5 -7 -25 -22 -44 -19 -26
-34 -35 -55 -35 -16 0 -29 -4 -29 -10 0 -5 11 -10 24 -10 14 0 28 -5 32 -11 5
-8 12 -5 23 9 22 29 69 39 77 18 8 -20 -32 -66 -56 -66 -9 0 -25 -9 -35 -20
-18 -19 -17 -20 2 -20 10 0 38 9 61 20 45 22 83 25 113 10 44 -24 10 -150 -42
-150 -14 0 -19 -7 -19 -26 0 -24 1 -24 22 -10 12 9 30 16 40 16 29 0 85 -31
97 -54 7 -12 26 -29 43 -39 31 -18 31 -18 10 -33 -18 -13 -21 -21 -15 -59 3
-25 4 -45 2 -45 -2 -1 -74 -3 -159 -6 -85 -3 -160 -7 -167 -9 -17 -6 -33 -73
-23 -98 4 -12 26 -42 49 -67 22 -25 41 -51 41 -57 0 -7 4 -13 9 -13 5 0 14
-13 21 -30 7 -16 18 -30 26 -30 7 0 31 -37 54 -83 23 -45 47 -88 53 -95 8 -10
5 -14 -12 -19 -12 -3 -19 -11 -16 -17 3 -6 8 -19 11 -28 4 -10 10 -18 15 -18
5 0 9 -49 9 -110 0 -103 -1 -110 -20 -110 -11 0 -20 -4 -20 -10 0 -7 171 -10
494 -10 l494 0 7 93 c12 167 -6 500 -36 687 -6 36 -12 83 -14 105 -8 118 -39
284 -86 460 -22 82 -107 197 -242 331 -76 75 -86 89 -134 200 -29 65 -69 171
-88 234 -60 191 -86 264 -124 345 -16 33 -34 76 -41 95 -21 56 -59 92 -91 85
-61 -14 -212 82 -250 158 l-21 41 24 20 c14 12 28 30 32 40 6 18 7 18 30 -3
13 -12 47 -28 77 -36 72 -19 83 -9 75 65 -4 30 -8 123 -10 205 -2 83 -8 173
-15 200 -7 28 -12 100 -11 160 1 61 2 180 1 265 -2 210 19 320 112 595 49 143
58 180 62 272 5 83 80 440 112 528 41 114 48 132 59 146 23 30 47 95 49 131 2
29 11 46 41 76 63 61 105 82 170 86 33 1 83 8 113 14 29 7 58 9 64 5 5 -3 23
-9 40 -12 27 -6 29 -10 33 -63 3 -41 1 -60 -11 -71 -8 -9 -15 -22 -15 -30 0
-16 -41 -57 -57 -57 -6 0 -31 -9 -55 -20 -50 -22 -193 -162 -243 -237 -79
-120 -92 -147 -81 -175 8 -22 5 -33 -17 -65 -15 -21 -40 -46 -57 -56 -35 -21
-39 -37 -10 -37 11 0 20 -6 20 -13 0 -8 -9 -22 -20 -32 -21 -19 -27 -45 -10
-45 6 0 29 9 51 21 23 11 42 19 43 17 35 -54 37 -61 30 -106 -6 -40 -5 -45 7
-35 9 7 20 9 29 3 12 -7 9 -15 -18 -43 -35 -36 -32 -50 11 -47 53 5 87 -1 104
-18 28 -27 70 -45 92 -39 30 8 38 -13 12 -33 -15 -10 -23 -28 -24 -51 -1 -20
-11 -42 -24 -55 -43 -40 -50 -104 -11 -104 26 0 18 -24 -10 -28 -19 -3 -22
-10 -22 -46 0 -27 6 -48 15 -56 17 -14 20 -50 5 -50 -6 0 -20 -16 -31 -35 -18
-29 -24 -33 -36 -23 -20 16 -34 -6 -31 -53 1 -29 -6 -45 -33 -78 -40 -45 -65
-140 -47 -174 7 -13 5 -23 -5 -35 -17 -19 -9 -49 17 -72 37 -30 49 -81 51
-220 3 -161 21 -324 41 -362 10 -19 12 -41 8 -63 -5 -28 -3 -35 10 -35 18 0
45 -54 57 -115 34 -176 63 -248 109 -280 31 -21 41 -36 50 -76 10 -43 16 -50
34 -47 28 4 32 41 8 75 -18 25 -41 160 -33 188 8 25 1 69 -13 84 -9 10 -16 30
-16 45 0 23 4 27 20 23 17 -4 20 0 20 28 0 30 3 33 36 37 29 3 44 -2 77 -29
23 -18 51 -46 62 -63 11 -16 27 -30 36 -30 9 0 22 -6 28 -14 18 -21 72 -31 81
-16 10 17 105 26 114 11 4 -6 20 -11 35 -11 17 0 36 -10 49 -25 12 -13 33 -27
47 -31 15 -4 28 -16 31 -30 4 -14 16 -27 30 -30 25 -7 25 -5 2 -98 -5 -21 -9
-77 -9 -125 0 -47 0 -102 0 -121 -1 -19 1 -71 3 -114 3 -64 7 -81 22 -90 37
-22 76 -68 76 -91 0 -13 10 -30 26 -40 25 -16 27 -16 49 5 31 29 76 19 122
-26 28 -28 41 -34 77 -34 35 0 47 5 60 25 9 13 34 41 56 61 22 21 40 43 40 50
0 14 52 34 89 34 15 0 34 9 43 19 9 11 35 25 57 31 22 6 43 15 46 20 3 6 15
10 26 10 12 0 19 5 16 13 -2 6 -11 11 -21 9 -9 -2 -16 4 -16 13 0 8 5 15 11
15 6 0 1 15 -10 34 -23 36 -28 81 -10 91 5 4 8 12 6 18 -4 13 29 61 44 63 5 1
13 2 17 3 4 0 9 22 10 47 1 26 7 53 13 60 9 11 8 18 -3 32 -8 9 -18 25 -21 34
-4 10 -21 20 -44 23 -74 13 -91 26 -73 55 10 17 132 43 190 41 51 -1 125 16
155 36 11 7 27 13 37 13 10 0 18 7 18 15 0 8 9 15 21 15 15 0 19 -4 14 -19 -8
-25 9 -35 25 -16 7 8 17 12 22 9 6 -4 5 -10 -3 -15 -27 -17 73 -9 104 9 18 9
59 41 91 70 33 30 71 59 85 65 14 7 42 29 62 50 20 20 41 37 47 37 17 0 15
-91 -2 -116 -10 -14 -16 -57 -19 -135 -2 -63 -13 -154 -24 -204 -21 -92 -19
-105 17 -105 8 1 27 11 41 23 31 28 49 62 112 208 14 31 30 60 36 63 6 4 11
15 11 24 0 9 7 30 15 45 8 15 19 54 25 85 16 86 38 154 59 176 18 21 25 57 40
226 7 81 15 102 55 139 18 17 26 35 26 58 0 31 2 34 28 31 l27 -3 3 88 c2 49
-1 94 -6 100 -5 7 -12 33 -16 58 -4 30 -15 54 -31 69 -14 13 -25 30 -25 38 0
8 -20 32 -45 54 -29 26 -45 48 -45 63 0 13 -4 27 -10 30 -5 3 -10 14 -10 23
-1 19 -33 62 -48 62 -11 0 -62 64 -62 78 0 5 -15 20 -33 32 -18 13 -40 35 -49
51 -15 26 -15 30 3 66 l19 38 -21 16 c-29 21 -16 42 22 37 16 -3 29 -1 29 4 0
5 11 14 25 20 46 21 45 86 0 106 -14 6 -25 18 -25 25 0 8 37 49 82 91 73 67
82 78 71 95 -15 24 -8 31 31 31 17 0 39 7 49 14 17 13 16 15 -9 35 -15 12 -41
21 -60 21 -48 0 -51 17 -4 31 32 10 53 10 98 0 31 -7 84 -17 117 -23 33 -6 70
-15 83 -21 36 -17 47 5 17 33 -14 13 -25 27 -25 32 0 36 149 -52 176 -104 15
-29 11 -68 -7 -68 -6 0 -7 -5 -4 -11 4 -6 13 -8 20 -6 7 3 23 -17 41 -54 19
-38 35 -59 46 -59 10 0 24 -15 34 -35 9 -20 25 -40 35 -46 11 -5 25 -25 33
-43 19 -45 87 -133 109 -141 9 -4 17 -16 17 -29 0 -31 28 -96 41 -96 5 0 19
-20 30 -45 18 -41 19 -54 10 -177 -5 -73 -17 -155 -25 -183 -9 -27 -16 -75
-16 -105 0 -31 -4 -60 -9 -65 -5 -6 -11 -41 -13 -80 -3 -69 -3 -70 22 -67 14
1 32 11 42 22 21 26 69 26 88 0 22 -30 57 -25 75 10 9 17 24 30 34 30 10 0 21
7 25 15 7 18 26 20 26 3 0 -7 -7 -26 -15 -41 -18 -36 -65 -204 -65 -235 0 -27
45 -72 72 -72 11 0 42 12 69 27 l48 27 23 -21 c13 -13 29 -43 36 -68 9 -32 20
-51 40 -62 45 -26 64 -59 56 -95 -13 -60 -210 -223 -299 -248 -42 -12 -48 -11
-97 15 -29 15 -65 37 -80 49 -15 11 -41 31 -58 44 -16 13 -38 22 -47 20 -30
-5 -73 -81 -94 -162 -19 -72 -19 -81 -5 -131 15 -49 15 -56 -5 -111 -19 -57
-48 -160 -49 -178 0 -4 7 -6 15 -2 23 8 18 -21 -7 -46 -17 -17 -24 -37 -26
-73 -1 -27 -6 -126 -11 -220 -5 -93 -14 -210 -20 -260 -19 -156 -41 -436 -41
-520 0 -44 -5 -112 -10 -151 -5 -40 -10 -107 -11 -150 -1 -42 -8 -89 -15 -103
-8 -14 -14 -36 -14 -48 0 -13 -4 -23 -9 -23 -5 0 -15 -16 -21 -34 -8 -24 -26
-45 -57 -65 -26 -17 -51 -31 -56 -31 -24 0 -163 -162 -153 -178 3 -6 -5 -17
-18 -26 -14 -8 -27 -24 -31 -34 -7 -24 -94 -39 -123 -21 -14 9 -26 8 -53 -4
-19 -8 -77 -18 -130 -21 -87 -5 -98 -3 -114 14 -24 27 -54 25 -64 -2 -10 -29
-5 -46 26 -79 21 -22 22 -27 9 -32 -9 -4 -30 -4 -48 0 -22 4 -29 3 -24 -5 4
-7 14 -12 22 -12 31 0 7 -25 -35 -37 -52 -15 -71 -29 -71 -54 0 -18 16 -19
449 -19 l449 0 79 74 c73 70 150 163 273 329 27 37 50 70 50 72 0 2 13 26 28
52 16 26 37 71 47 98 24 66 30 71 58 53 76 -51 151 -144 334 -418 13 -19 56
-60 96 -91 60 -47 73 -61 79 -95 14 -67 32 -74 179 -74 l129 0 0 35 c0 25 -4
35 -15 35 -9 0 -20 11 -25 25 -5 14 -13 25 -17 24 -23 -4 -30 5 -42 50 -7 27
-26 71 -42 96 -17 26 -28 53 -25 60 2 7 20 16 38 20 73 15 68 5 68 137 0 119
8 170 37 237 8 18 21 70 29 115 8 44 21 95 29 113 8 17 15 36 15 42 0 12 117
131 129 131 8 0 64 45 96 77 12 13 27 23 33 23 15 0 102 91 102 107 0 7 7 13
15 13 17 0 42 46 32 56 -7 8 -254 -18 -421 -43 -92 -13 -113 -20 -133 -41 -21
-23 -62 -25 -48 -3 3 6 -6 18 -20 27 -23 15 -25 23 -25 83 0 36 5 103 12 149
14 100 29 116 117 126 32 4 65 13 71 21 10 13 8 15 -11 15 -44 0 -52 14 -24
40 14 13 25 28 25 32 0 11 -44 -1 -48 -13 -2 -5 -11 -9 -20 -9 -13 1 -10 6 11
23 16 14 27 33 27 48 0 25 27 59 46 59 13 0 64 -53 64 -66 0 -13 166 -10 227
4 24 5 66 25 95 44 29 19 68 38 86 41 29 6 37 2 62 -25 16 -18 32 -29 36 -25
14 13 -8 57 -40 82 -32 24 -33 28 -24 58 6 18 14 39 19 48 4 10 2 24 -5 35
-17 24 -26 73 -15 80 11 7 47 -13 78 -43 69 -66 159 -76 145 -15 -9 35 -51 86
-78 92 -27 7 -46 71 -27 93 13 17 123 39 146 30 16 -6 21 -48 6 -57 -13 -8
-13 -137 0 -153 6 -7 20 -13 31 -13 18 0 18 2 4 22 -11 15 -12 26 -5 40 6 11
8 31 4 46 -8 37 47 122 78 122 12 0 39 6 62 14 22 8 52 17 66 20 14 3 31 17
39 33 8 16 22 40 32 55 10 14 18 37 18 50 0 13 8 33 18 44 26 29 94 174 108
229 4 17 10 35 14 40 4 6 10 30 13 55 11 84 19 120 28 120 5 0 9 15 9 34 0 19
5 47 11 63 6 15 15 74 19 129 4 61 14 115 24 135 9 19 22 67 27 109 6 41 14
81 18 90 5 8 11 49 15 90 4 41 15 111 25 155 11 44 21 114 23 157 3 67 1 75
-12 68 -9 -5 -37 -8 -62 -7 -49 2 -64 -5 -53 -22 8 -14 52 -14 60 -1 7 12 55
14 55 3 -1 -27 -70 -66 -104 -57 -13 3 -32 2 -42 -4 -11 -6 -26 -5 -45 5 -39
19 -44 31 -23 54 9 10 15 21 13 22 -15 11 -93 27 -144 29 -53 3 -60 1 -58 -15
1 -15 -4 -18 -20 -13 -12 3 -28 6 -34 6 -24 0 -13 31 17 48 51 29 46 43 -13
40 l-52 -3 -1 43 c-2 33 1 42 14 42 10 0 26 7 36 15 11 8 33 15 48 15 16 0 31
7 34 15 4 8 12 15 20 15 8 0 32 11 54 25 22 14 49 25 60 25 46 0 16 41 -77
103 -46 31 -54 33 -72 21 -15 -11 -26 -12 -46 -4 -24 9 -31 7 -51 -15 -26 -28
-32 -30 -56 -11 -21 15 -24 72 -5 79 9 4 9 8 -2 15 -8 6 -11 17 -8 26 7 18 23
21 32 5 8 -12 55 28 55 47 0 16 34 27 60 19 11 -4 50 -3 86 0 74 8 86 21 98
108 6 39 4 47 -8 47 -21 0 -49 -45 -42 -68 4 -12 -3 -27 -23 -46 -24 -24 -32
-26 -50 -17 -22 12 -29 31 -11 31 6 0 8 10 5 23 -5 19 4 33 44 70 28 26 59 47
70 47 11 0 33 11 49 25 18 15 42 25 60 25 17 0 34 5 37 10 4 6 26 8 56 4 63
-8 65 9 2 23 -73 16 -166 9 -208 -16 -20 -11 -45 -21 -56 -21 -26 0 -59 -18
-81 -44 l-17 -21 -1 21 c0 26 40 64 67 64 25 0 40 17 45 50 3 22 7 24 53 23
38 -1 43 0 20 5 -22 5 -31 14 -33 32 -2 20 -12 28 -42 38 -48 15 -77 15 -85 2
-8 -13 -72 -13 -80 0 -4 6 -21 8 -39 4 -26 -4 -39 -1 -62 19 -38 34 -23 53 33
42 78 -16 147 -13 187 7 21 11 57 26 80 34 80 29 166 106 99 90 -16 -4 -45
-16 -65 -26 -32 -16 -38 -17 -38 -5 0 8 6 15 13 15 8 0 46 32 86 70 39 39 76
70 81 70 5 0 12 -9 15 -20 3 -11 11 -20 16 -20 12 0 12 37 0 45 -6 3 -13 26
-17 51 -5 35 -10 44 -23 40 -9 -2 -25 -7 -37 -10 -28 -8 -52 12 -69 59 -11 33
-18 40 -38 37 -27 -3 -55 22 -37 33 6 4 17 1 25 -5 18 -15 29 10 40 90 4 30
22 89 39 130 73 168 49 177 -36 14 -41 -79 -55 -116 -51 -135 9 -46 -29 -50
-95 -9 l-34 21 36 39 c37 42 47 66 21 56 -8 -3 -22 -9 -31 -12 -10 -5 -17 0
-21 15 -3 11 -12 21 -19 21 -10 0 -13 7 -8 24 4 18 1 25 -16 29 -20 5 -22 10
-16 42 6 31 5 36 -10 33 -13 -2 -20 9 -30 51 -6 30 -10 60 -7 67 6 15 82 54
105 54 9 0 36 11 59 25 46 26 106 32 139 15 11 -6 29 -30 40 -53 l21 -42 -6
38 c-14 88 -43 108 -130 95 -27 -4 -69 -10 -92 -14 -24 -3 -43 -10 -43 -14 0
-4 -30 -22 -67 -41 -61 -29 -78 -33 -167 -35 -98 -2 -99 -2 -126 28 -21 22
-33 28 -49 23 -16 -5 -21 -2 -21 11 0 14 7 16 47 11 52 -6 83 5 83 28 0 8 9
15 20 15 11 0 20 -4 20 -10 0 -18 29 -11 40 9 16 30 48 36 73 13 56 -51 127
-57 176 -16 17 14 31 32 31 40 0 7 22 31 49 51 59 46 75 71 30 47 -38 -19 -49
-11 -56 45 -4 30 -13 47 -33 61 -16 11 -33 20 -39 20 -5 0 -14 6 -18 14 -4 7
-23 21 -40 30 -18 9 -33 21 -33 26 0 20 -27 9 -54 -21 -46 -51 -76 -23 -52 49
11 32 -21 30 -36 -3 -11 -25 -70 -50 -76 -33 -2 4 -16 8 -31 8 -29 0 -51 16
-51 37 0 7 10 13 23 13 19 0 17 3 -10 16 -18 9 -33 20 -33 25 0 5 -16 25 -36
45 -21 20 -32 39 -27 43 30 18 -51 100 -85 85 -9 -4 -33 -8 -52 -10 -19 -1
-52 -6 -72 -9 -41 -8 -47 0 -23 31 22 29 18 36 -10 18 -14 -9 -23 -20 -20 -24
6 -10 -82 -43 -94 -35 -18 10 0 108 25 138 13 15 33 54 45 86 16 46 28 63 52
75 l32 15 -28 10 c-15 6 -27 18 -27 26 0 9 -6 18 -14 21 -8 3 -20 19 -26 35
-13 31 -55 59 -87 59 -10 0 -38 -11 -62 -25 -23 -14 -45 -25 -47 -25 -2 0 -4
15 -4 34 0 30 -4 36 -34 46 -19 6 -42 22 -50 36 -9 13 -21 24 -26 24 -19 0
-79 75 -80 98 0 16 22 46 70 93 66 66 69 76 23 70 -7 -1 -13 3 -13 9 0 15 -36
12 -50 -5 -20 -24 -47 -17 -69 19 -27 44 -27 49 10 91 32 37 79 49 79 20 0 -8
5 -15 10 -15 15 0 12 22 -6 48 -24 35 -67 29 -100 -13 l-27 -36 -26 24 c-35
33 -64 47 -97 47 -15 0 -35 6 -43 14 -20 17 -63 27 -77 18 -15 -10 -54 -81
-54 -98 0 -8 -10 -14 -25 -14 -25 0 -33 14 -15 25 6 3 10 18 10 32 0 22 -3 24
-24 19 -15 -4 -28 0 -36 9 -11 14 -15 13 -27 -5 -8 -11 -23 -20 -34 -20 -20 0
-27 -34 -10 -45 18 -10 -4 -189 -25 -206 -11 -9 -17 -4 -31 20 -11 19 -26 31
-39 31 -25 0 -34 16 -44 78 -6 36 -4 45 13 57 17 12 19 19 11 47 -8 26 -16 34
-37 36 -15 2 -27 9 -27 16 0 8 -6 19 -14 25 -12 10 -15 8 -18 -10 -4 -29 -29
-44 -59 -36 -29 7 -62 80 -53 115 4 13 2 22 -5 22 -6 0 -11 -4 -11 -10 0 -5
-4 -10 -10 -10 -15 0 -12 36 5 50 8 7 15 18 15 25 0 23 -51 64 -83 67 -24 2
-33 8 -35 26 -4 25 -36 46 -58 38 -8 -3 -15 -20 -15 -38 -1 -28 -2 -29 -6 -8
-3 14 -11 32 -19 41 -12 13 -11 20 4 50 16 32 20 34 47 27 17 -5 44 -7 60 -4
29 4 30 2 32 -39 2 -35 -2 -44 -20 -54 -20 -10 -19 -11 9 -6 25 5 40 -1 76
-28 63 -48 80 -52 149 -30 64 20 70 28 71 99 1 48 16 67 61 78 24 6 27 11 27
48 l0 42 -30 -32 c-31 -35 -52 -36 -43 -2 4 14 -2 22 -21 30 -23 8 -26 15 -26
61 0 47 2 52 30 62 21 8 30 18 30 34 0 27 -8 29 -25 7 -9 -14 -16 -14 -33 -5
-21 11 -27 31 -23 77 1 17 -6 23 -37 27 -66 11 -111 -2 -129 -37 -20 -40 -53
-76 -70 -76 -7 0 -13 -7 -13 -16 0 -9 -6 -14 -13 -11 -8 3 -43 8 -80 12 -37 4
-72 14 -78 21 -7 8 -30 14 -55 14 -45 0 -56 14 -33 37 9 9 5 14 -15 19 -18 4
-26 13 -26 28 0 12 -6 31 -14 41 -13 18 -14 17 -40 -8 -32 -32 -42 -33 -55 -8
-13 24 -41 35 -55 21 -16 -16 -76 -12 -83 6 -7 20 13 34 52 34 17 0 41 7 55
15 23 13 23 14 5 16 -11 0 -27 2 -35 3 -8 2 -29 3 -46 4 -41 2 -53 37 -24 67
42 45 -33 63 -77 19 -18 -18 -33 -24 -50 -21 -19 3 -27 -1 -34 -19 -5 -14 -20
-29 -34 -36 -14 -6 -25 -15 -25 -20 0 -16 -29 -8 -40 11 -14 27 -14 27 29 44
42 17 62 38 43 45 -7 2 -12 9 -12 15 -1 7 -10 23 -20 36 -15 17 -26 22 -45 17
-27 -7 -31 3 -14 36 13 24 8 30 -31 34 -22 3 -30 0 -30 -12 0 -10 6 -14 15
-11 8 4 17 2 20 -3 3 -4 -16 -21 -42 -37 -44 -26 -52 -28 -97 -20 -35 7 -55 6
-68 -2 -15 -9 -23 -9 -33 -1 -19 15 -37 3 -30 -19 3 -10 -1 -24 -9 -30 -11 -9
-13 -25 -9 -63 5 -39 3 -54 -9 -62 -8 -6 -18 -23 -21 -38 -6 -22 -4 -27 15
-30 22 -3 26 -18 13 -55 -5 -15 -45 -18 -45 -3 0 6 -11 10 -24 10 -20 0 -22 4
-18 26 2 14 11 28 19 31 12 5 12 8 0 22 -35 39 -32 121 4 121 12 0 19 7 19 20
0 29 -15 25 -40 -10 -12 -16 -28 -30 -36 -30 -8 0 -26 -11 -40 -25 -28 -28
-44 -32 -44 -10 0 8 -11 22 -25 31 -15 10 -25 26 -25 39 0 52 -32 74 -59 41
-7 -8 -28 -17 -48 -21 -28 -5 -40 -2 -57 14 -31 29 -40 27 -77 -19 -18 -22
-34 -38 -37 -35 -3 2 -13 0 -24 -6 -15 -8 -28 -6 -54 6 -36 17 -47 41 -48 110
-1 34 2 40 19 40 25 0 47 14 40 25 -3 4 -21 11 -42 15 -20 4 -46 13 -57 21
-25 17 -142 19 -171 2z m921 -175 c-10 -10 -19 5 -10 18 6 11 8 11 12 0 2 -7
1 -15 -2 -18z m88 -54 c10 -52 7 -75 -12 -92 -18 -16 -19 -15 -32 9 -11 20
-12 29 -2 44 7 11 12 28 12 38 0 42 25 42 34 1z m406 -9 c0 -5 -5 -10 -11 -10
-5 0 -7 5 -4 10 3 6 8 10 11 10 2 0 4 -4 4 -10z m-100 -60 c0 -22 -5 -30 -18
-30 -28 0 -32 10 -15 36 21 32 33 30 33 -6z m-180 -60 c0 -5 -10 -10 -22 -10
-19 0 -20 2 -8 10 19 13 30 13 30 0z m337 -26 c-3 -3 -12 -4 -19 -1 -8 3 -5 6
6 6 11 1 17 -2 13 -5z m757 -82 c9 -35 -13 -132 -30 -132 -3 0 -19 11 -36 25
-16 14 -36 25 -44 25 -11 0 -14 9 -12 36 3 33 7 38 48 54 49 19 67 17 74 -8z
m-1940 -127 c9 -18 16 -45 16 -59 0 -28 -29 -96 -42 -96 -4 0 -11 -1 -15 -2
-3 -2 -7 29 -8 67 0 39 -5 93 -9 120 l-9 50 26 -24 c14 -13 33 -38 41 -56z
m-1714 -10 c0 -8 -4 -15 -9 -15 -5 0 -12 -10 -14 -22 -3 -14 -5 -9 -6 15 -1
27 3 37 14 37 8 0 15 -7 15 -15z m1463 -57 c3 -40 5 -86 5 -102 l0 -29 -38 42
c-25 28 -43 39 -54 35 -21 -8 -21 15 -1 64 17 41 40 62 66 62 14 0 18 -12 22
-72z m1131 -61 c13 -20 5 -30 -18 -21 -9 3 -16 15 -16 26 0 22 18 20 34 -5z
m-166 1 c-3 -7 -18 -22 -36 -33 -53 -34 -50 -60 10 -91 16 -8 28 -23 28 -33 0
-28 30 -76 54 -87 20 -9 43 -60 32 -71 -8 -8 -56 37 -56 53 0 6 -9 14 -20 17
-12 3 -20 14 -20 26 0 12 -11 26 -25 33 -27 15 -75 75 -75 95 0 18 46 90 62
96 25 10 50 7 46 -5z m-2253 -68 c3 -5 1 -10 -4 -10 -6 0 -11 5 -11 10 0 6 2
10 4 10 3 0 8 -4 11 -10z m3025 -34 c0 -30 -13 -86 -20 -86 -8 0 -25 40 -34
81 -5 23 -3 25 24 21 17 -2 30 -9 30 -16z m448 12 c-2 -6 -10 -14 -16 -16 -7
-2 -10 2 -6 12 7 18 28 22 22 4z m-3733 -17 c3 -5 1 -12 -5 -16 -5 -3 -10 1
-10 9 0 18 6 21 15 7z m3480 -171 c8 -25 -1 -41 -20 -33 -19 7 -20 53 -1 53 8
0 17 -9 21 -20z m-3915 -19 c0 -5 9 -11 20 -14 26 -7 26 -37 -1 -71 -25 -32
-39 -26 -39 19 0 26 -3 33 -15 29 -18 -7 -20 17 -3 34 14 14 38 16 38 3z
m2733 -11 c3 -11 1 -20 -4 -20 -5 0 -9 2 -9 4 0 2 -3 11 -6 20 -3 9 -2 16 4
16 5 0 12 -9 15 -20z m135 -61 c-3 -27 1 -32 36 -46 24 -10 43 -13 51 -7 95
68 106 74 112 58 3 -9 2 -28 -3 -43 -9 -25 -13 -26 -99 -32 -50 -3 -100 -2
-112 2 -31 11 -40 54 -18 79 26 28 35 25 33 -11z m568 -34 c-4 -11 1 -15 22
-13 81 5 108 -11 51 -31 -35 -12 -149 -15 -149 -4 0 4 12 19 28 34 30 30 57
38 48 14z m1255 -44 c13 -10 41 -26 62 -36 30 -14 37 -23 37 -45 0 -16 -5 -30
-12 -32 -18 -6 -98 41 -98 58 0 8 -15 28 -32 44 l-33 29 26 1 c15 0 37 -8 50
-19z m-3243 -53 c-2 -41 -7 -54 -20 -56 -15 -3 -18 4 -18 40 0 41 13 68 33 68
4 0 7 -24 5 -52z m-1826 5 c24 -21 23 -43 -2 -43 -18 0 -40 26 -40 49 0 16 21
13 42 -6z m4850 -27 c24 -10 45 -12 71 -7 20 5 38 6 41 3 13 -12 5 -32 -13
-32 -10 0 -35 -13 -56 -30 -44 -35 -75 -39 -75 -10 0 11 -7 36 -14 55 -17 41
-10 44 46 21z m-4694 -13 c-2 -10 -13 -19 -26 -21 -24 -4 -25 -2 -16 22 9 23
46 21 42 -1z m3590 -59 c-12 -11 -48 17 -48 39 0 21 1 21 27 -5 15 -15 24 -30
21 -34z m513 19 c17 -44 12 -55 -23 -51 -28 2 -34 8 -36 31 -7 55 39 71 59 20z
m-563 -31 c19 -24 15 -32 -17 -32 -30 0 -61 29 -61 57 0 16 60 -3 78 -25z m76
-11 c3 -4 19 -11 34 -14 30 -6 50 -43 32 -61 -12 -12 -52 -1 -80 22 -17 13
-21 24 -16 40 8 23 21 29 30 13z m1026 -46 c0 -8 -7 -15 -15 -15 -9 0 -12 6
-9 15 4 8 10 15 15 15 5 0 9 -7 9 -15z m318 -12 c-4 -22 -48 -31 -48 -10 0 19
10 27 32 27 13 0 18 -6 16 -17z m-633 -24 c0 -7 -8 -15 -17 -17 -18 -3 -25 18
-11 32 10 10 28 1 28 -15z m-1249 -43 c-14 -22 -81 -54 -92 -44 -6 6 31 48 42
48 5 0 20 9 34 20 30 22 38 9 16 -24z m960 -2 c-5 -19 -10 -24 -18 -16 -6 6
-8 22 -4 38 5 19 10 24 18 16 6 -6 8 -22 4 -38z m944 12 c0 -15 -18 -31 -26
-23 -7 7 7 37 17 37 5 0 9 -6 9 -14z m-2450 -77 c25 -60 -16 -82 -50 -26 -20
32 -26 77 -13 90 10 10 49 -30 63 -64z m-2582 42 c3 -8 -1 -12 -9 -9 -7 2 -15
10 -17 17 -3 8 1 12 9 9 7 -2 15 -10 17 -17z m3340 -23 c20 -20 14 -27 -25
-33 -81 -13 -83 -14 -83 -42 0 -15 -5 -41 -12 -60 -11 -29 -9 -36 10 -62 12
-17 22 -37 22 -46 0 -17 -31 -20 -47 -4 -6 6 -26 14 -45 18 -25 6 -32 12 -30
27 2 10 5 41 7 67 5 69 54 117 140 138 44 10 50 10 63 -3z m-2578 -64 c0 -16
-16 -19 -25 -4 -8 13 4 32 16 25 5 -4 9 -13 9 -21z m1690 -14 c19 -35 12 -50
-23 -50 -18 0 -38 5 -43 10 -18 18 -42 0 -59 -43 -19 -48 -54 -80 -75 -67 -29
18 36 119 86 134 11 3 31 17 44 31 25 27 50 22 70 -15z m548 -26 c-1 -59 -2
-64 -17 -50 -23 23 -11 116 15 116 2 0 3 -30 2 -66z m439 54 c6 -7 10 -46 9
-87 -1 -65 -4 -76 -24 -89 l-22 -14 14 40 c14 38 13 43 -5 66 -18 23 -26 76
-12 89 10 11 30 8 40 -5z m1781 -35 c-2 -10 -12 -18 -23 -18 -11 0 -21 8 -23
18 -3 13 3 17 23 17 20 0 26 -4 23 -17z m-5453 -22 c3 -5 0 -21 -7 -36 -9 -21
-9 -28 1 -34 9 -6 10 -11 3 -15 -6 -3 -13 -2 -17 4 -3 5 -17 10 -31 10 -35 0
-41 26 -14 56 24 24 54 32 65 15z m3575 -1 c0 -5 -4 -10 -10 -10 -5 0 -10 5
-10 10 0 6 5 10 10 10 6 0 10 -4 10 -10z m-1581 -55 c0 -26 -2 -27 -9 -10 -5
11 -9 31 -9 45 -1 20 1 22 9 10 5 -8 9 -28 9 -45z m731 12 c0 -17 -53 -97 -80
-122 -38 -34 -13 31 28 74 8 8 18 25 23 38 9 25 29 32 29 10z m-924 -44 c-11
-12 -27 13 -20 32 7 17 8 17 17 -3 6 -12 7 -25 3 -29z m1755 24 c-13 -13 -26
-3 -16 12 3 6 11 8 17 5 6 -4 6 -10 -1 -17z m-3671 -35 c0 -36 -5 -54 -20 -67
-23 -21 -50 -13 -50 14 0 40 31 101 51 101 16 0 19 -8 19 -48z m3730 -61 c0
-16 -18 -23 -40 -16 -22 7 -26 35 -8 53 9 9 16 7 30 -8 10 -10 18 -24 18 -29z
m-3640 25 c0 -8 -5 -18 -11 -22 -14 -8 -33 11 -25 25 10 16 36 13 36 -3z
m5757 -60 c-8 -19 -37 -21 -37 -3 0 7 5 18 12 25 15 15 33 -1 25 -22z m-2182
-284 c-7 -44 1 -55 57 -70 33 -9 38 -8 43 9 9 27 18 18 50 -46 16 -31 37 -57
49 -61 11 -4 32 -19 46 -33 14 -14 34 -31 45 -37 16 -10 18 -15 8 -25 -10 -10
-7 -16 15 -31 15 -10 35 -18 44 -18 23 0 48 -27 42 -45 -3 -8 4 -26 15 -41 12
-15 21 -31 21 -36 0 -5 9 -21 20 -36 18 -24 21 -47 25 -151 3 -96 1 -123 -10
-127 -44 -17 -74 -309 -41 -403 9 -24 16 -58 16 -75 0 -18 4 -36 10 -42 11
-11 13 -66 4 -110 -3 -18 0 -45 10 -68 11 -26 13 -44 6 -61 -8 -20 -5 -32 14
-60 14 -19 27 -54 31 -78 4 -23 13 -64 21 -92 14 -47 14 -51 -6 -67 -25 -21
-26 -44 0 -60 29 -19 26 -48 -6 -48 -32 0 -112 18 -142 33 -18 8 -21 16 -17
41 5 28 -3 42 -79 131 -95 110 -187 194 -287 261 -36 24 -74 53 -84 64 -10 11
-25 20 -33 20 -8 0 -22 11 -33 24 -10 13 -31 29 -48 35 -36 16 -50 65 -25 92
13 15 14 22 5 33 -10 12 -8 16 8 21 11 3 18 12 15 19 -4 10 7 15 38 19 82 11
113 20 140 42 32 27 108 41 138 25 11 -6 24 -8 29 -5 9 5 30 -22 57 -70 12
-22 61 -32 77 -16 7 7 -1 20 -25 43 -71 68 -97 88 -112 88 -8 0 -20 9 -26 20
-6 11 -20 20 -31 20 -25 0 -71 23 -89 45 -23 28 -112 64 -199 79 -46 9 -88 22
-95 30 -20 27 -113 57 -156 50 -33 -5 -40 -4 -40 10 0 9 -8 20 -17 23 -10 4
-22 12 -26 20 -14 22 -44 14 -83 -22 -42 -39 -45 -40 -82 -21 -36 18 -100 27
-107 15 -4 -5 -17 -9 -30 -9 -13 0 -27 -5 -30 -10 -4 -6 -10 -8 -14 -5 -10 5
-35 -22 -44 -47 -4 -12 -17 -18 -37 -18 -39 0 -73 -50 -60 -86 10 -26 3 -57
-10 -49 -5 3 -11 -8 -15 -24 -5 -23 -1 -35 15 -51 15 -15 20 -31 19 -58 -2
-22 5 -48 16 -65 23 -35 22 -121 -3 -168 -19 -38 -28 -230 -13 -284 4 -17 5
-40 1 -51 -7 -18 -14 -20 -51 -15 -41 6 -44 8 -54 48 -12 52 -31 74 -41 50 -3
-9 -15 -17 -25 -17 -28 0 -42 45 -34 109 6 44 3 60 -17 98 l-23 44 -80 -6
c-44 -4 -83 -10 -86 -14 -3 -3 -16 -42 -29 -86 -13 -44 -29 -87 -35 -95 -15
-19 -55 -90 -55 -96 0 -3 5 -2 10 1 6 3 10 2 10 -3 0 -6 9 -8 19 -5 16 4 21
-2 26 -31 4 -20 13 -36 20 -36 7 0 24 -9 38 -20 14 -11 32 -20 40 -20 16 0 73
24 99 42 13 10 24 8 53 -8 68 -36 79 -89 34 -157 -24 -37 -37 -47 -59 -47 -22
0 -29 -5 -33 -29 -6 -31 -50 -81 -70 -81 -6 0 -31 -7 -54 -16 -24 -9 -47 -14
-51 -10 -4 4 -6 30 -5 57 1 44 -2 51 -22 59 -17 6 -25 18 -27 42 -4 38 -33 51
-43 19 -9 -29 -23 -26 -31 7 -4 15 -11 33 -17 40 -7 8 -5 12 7 12 8 0 28 18
42 40 21 32 25 47 21 76 -3 20 -9 39 -12 42 -8 8 -25 -20 -19 -30 2 -4 -4 -12
-15 -17 -18 -10 -19 -8 -14 32 2 23 8 51 13 62 36 86 38 241 5 292 -10 14 -30
64 -46 110 -32 95 -46 118 -63 104 -8 -7 -11 7 -10 47 1 56 -10 87 -27 77 -12
-8 -29 29 -29 67 -1 59 -56 96 -132 89 -20 -2 -30 4 -41 25 l-14 27 -29 -42
c-34 -47 -60 -52 -94 -16 -20 21 -33 25 -79 25 -69 0 -84 -9 -76 -43 6 -24 4
-26 -32 -32 -63 -10 -114 -28 -126 -44 -26 -35 -51 -46 -105 -46 -52 0 -56 -2
-71 -32 -16 -32 -31 -43 -31 -23 0 6 -12 10 -27 10 -25 -1 -26 -2 -10 -14 27
-21 21 -31 -30 -45 -27 -7 -53 -14 -59 -16 -12 -3 -64 -104 -64 -123 0 -7 -5
-12 -11 -12 -7 0 -8 7 -4 18 3 9 9 40 11 67 3 28 10 60 16 72 8 17 8 26 -3 39
-8 10 -14 45 -16 91 -1 42 -4 77 -7 80 -2 2 -1 17 3 31 4 15 6 43 3 63 -2 21
1 40 7 43 6 4 11 31 11 61 0 38 4 54 15 59 10 3 15 16 13 33 -1 19 10 43 34
75 21 27 39 64 43 88 9 51 83 136 126 145 16 4 27 10 24 15 -3 5 -1 11 5 15 5
3 10 16 10 28 1 26 59 67 95 67 16 0 25 -7 29 -25 7 -28 21 -33 30 -10 7 18
36 20 37 3 4 -41 -5 -74 -23 -87 -19 -13 -19 -15 -3 -23 13 -8 23 -3 46 23 16
18 29 43 29 57 0 33 32 25 44 -11 8 -23 7 -30 -12 -43 -12 -8 -22 -20 -22 -25
0 -26 162 -67 187 -47 7 6 19 5 32 -2 15 -7 27 -8 40 -1 24 14 193 4 202 -11
9 -15 39 -2 39 17 0 8 6 16 13 16 43 4 107 -19 107 -38 0 -7 7 -13 15 -13 9 0
12 6 9 15 -8 19 32 70 41 54 4 -6 21 -9 38 -6 16 2 44 -3 61 -12 18 -9 57 -16
91 -16 59 0 60 1 70 33 15 44 33 61 45 42 8 -12 14 -11 40 9 l32 23 22 -21
c24 -22 51 -27 61 -11 8 13 44 -10 39 -25 -3 -7 2 -18 11 -25 13 -11 21 -10
46 9 37 28 72 22 45 -7 -9 -10 -16 -23 -16 -28 0 -13 63 -54 82 -54 19 0 102
46 118 65 7 8 20 15 30 15 10 0 43 10 74 21 46 18 56 26 56 45 0 28 25 32 56
9 33 -25 54 -19 54 15 0 17 5 30 11 30 17 0 53 -22 62 -37 10 -17 37 0 37 24
0 11 7 13 25 9 20 -5 27 -1 40 23 8 17 27 42 41 58 14 15 28 40 31 56 4 18 15
32 29 38 13 4 24 13 24 18 0 7 28 8 74 4 69 -5 74 -4 81 16 4 12 15 21 27 21
17 0 19 -4 13 -38z m2543 -190 c2 -7 -3 -12 -12 -12 -9 0 -16 7 -16 16 0 17
22 14 28 -4z m382 -100 c0 -4 -5 -13 -12 -20 -7 -7 -16 -12 -20 -12 -13 0 -9
28 5 33 19 8 27 8 27 -1z m-279 -115 c-13 -13 -26 -3 -16 12 3 6 11 8 17 5 6
-4 6 -10 -1 -17z m-563 -15 c4 -25 -13 -30 -22 -6 -9 25 -7 36 7 32 6 -3 13
-14 15 -26z m937 -32 c20 -22 14 -50 -11 -50 -16 0 -16 -1 -1 -18 23 -25 21
-38 -5 -56 -30 -21 -54 -20 -78 4 -28 28 -25 70 8 108 31 36 61 41 87 12z
m-625 -499 c0 -4 -11 -18 -25 -31 -22 -20 -25 -21 -31 -6 -8 21 22 57 42 49 8
-3 14 -8 14 -12z m455 -121 c9 -15 -14 -40 -37 -40 -23 0 -36 29 -17 41 19 12
46 11 54 -1z m114 -29 c21 -13 -5 -24 -29 -11 -11 6 -20 13 -20 15 0 8 34 5
49 -4z m-3219 -21 c0 -5 -2 -10 -4 -10 -3 0 -8 5 -11 10 -3 6 -1 10 4 10 6 0
11 -4 11 -10z m-3656 -108 c2 -4 -2 -15 -9 -25 -15 -20 -31 -6 -21 18 6 16 22
20 30 7z m3869 -263 c92 -47 171 -111 217 -177 l23 -34 -30 16 c-17 8 -44 26
-60 40 -15 13 -48 35 -71 47 -69 38 -79 44 -93 56 -8 6 -32 16 -54 22 -22 7
-51 18 -63 24 -24 11 -24 11 10 23 48 18 52 17 121 -17z m1187 1 c0 -11 -4
-20 -10 -20 -5 0 -10 9 -10 20 0 11 5 20 10 20 6 0 10 -9 10 -20z m-3478 -33
c15 -12 14 -15 -5 -33 -12 -12 -35 -28 -52 -37 -16 -9 -59 -39 -95 -67 -63
-49 -196 -140 -204 -140 -13 0 11 44 30 57 13 8 24 20 24 27 0 20 101 130 142
155 43 26 104 50 128 50 8 0 22 -5 32 -12z m5298 -29 c0 -51 10 -77 32 -84 14
-4 17 -9 10 -16 -14 -14 -117 19 -149 46 -19 17 -23 27 -17 54 6 32 7 32 65
32 l59 0 0 -32z m-1780 -22 c0 -6 -7 -2 -15 8 -8 11 -15 25 -15 30 0 6 7 2 15
-8 8 -11 15 -25 15 -30z m-2070 -140 c0 -30 -15 -42 -24 -20 -10 27 -7 44 9
44 9 0 15 -9 15 -24z m-1414 -33 c-10 -10 -19 5 -10 18 6 11 8 11 12 0 2 -7 1
-15 -2 -18z m1361 -76 c10 -35 20 -47 62 -72 41 -25 52 -37 61 -72 9 -31 19
-44 39 -51 22 -7 26 -14 26 -47 0 -32 4 -40 22 -45 12 -3 36 -24 53 -48 24
-33 34 -41 44 -33 15 12 22 6 45 -41 13 -26 57 -51 88 -51 8 0 24 -13 36 -28
15 -21 26 -27 42 -23 19 5 23 1 27 -25 3 -21 0 -31 -8 -31 -19 0 -28 -20 -14
-33 9 -9 14 -8 24 5 11 15 34 22 64 19 26 -2 0 -21 -29 -21 -22 0 -29 -5 -29
-20 0 -33 -28 -39 -94 -19 -33 11 -67 17 -75 14 -8 -3 -24 1 -37 10 -33 21
-61 7 -55 -28 1 -4 -4 -17 -9 -28 -9 -15 -7 -33 6 -72 10 -29 17 -60 15 -70
-2 -15 2 -17 17 -13 13 4 22 1 26 -9 3 -8 12 -15 21 -15 21 0 19 -10 -11 -41
-29 -30 -27 -59 4 -59 30 0 39 -20 34 -72 -4 -45 -6 -48 -40 -58 -62 -17 -70
-27 -36 -41 111 -45 133 -61 151 -101 7 -16 17 -28 22 -28 6 0 8 -6 5 -14 -3
-8 4 -16 17 -19 18 -5 20 -10 15 -34 -13 -52 -11 -67 7 -71 12 -2 17 3 17 17
0 13 6 21 16 21 12 0 15 -6 10 -25 -5 -20 -3 -25 14 -25 31 0 83 -78 76 -114
-5 -21 0 -36 19 -58 14 -16 25 -40 25 -52 0 -12 5 -27 10 -32 20 -20 29 -72
15 -84 -19 -16 -103 -2 -126 21 -11 11 -33 19 -51 19 -18 0 -49 5 -68 10 -164
43 -197 52 -215 59 -11 5 -51 23 -89 40 -37 17 -75 31 -83 31 -8 0 -27 8 -41
19 -15 10 -45 22 -67 25 -51 9 -60 15 -68 46 -5 21 -1 28 24 43 17 9 36 14 41
11 6 -4 16 0 22 8 6 8 19 17 29 21 11 4 21 16 24 27 8 29 59 28 66 -2 5 -18 8
-19 21 -8 9 7 16 23 16 36 0 17 6 24 20 24 11 0 20 -4 20 -10 0 -12 37 -13 44
-1 3 4 -6 19 -19 31 -14 13 -25 32 -25 42 0 26 -21 22 -47 -9 -22 -28 -22 -28
-23 -5 0 15 -7 26 -19 29 -10 3 -26 23 -34 45 -19 48 -52 51 -52 4 -1 -34 -36
-76 -65 -76 -11 0 -36 -6 -55 -14 -34 -14 -34 -14 -55 21 -13 23 -26 33 -35
29 -18 -6 -75 3 -75 13 0 14 77 89 97 95 11 4 28 15 38 26 16 17 16 21 1 42
-21 30 -20 44 4 68 27 27 99 28 122 1 9 -11 18 -27 20 -37 3 -15 13 -19 51
-20 59 -2 94 21 177 115 38 43 38 58 0 58 -22 0 -43 11 -73 40 -61 59 -79 65
-196 69 -58 2 -107 8 -109 13 -5 15 -100 81 -139 97 -34 15 -73 6 -73 -16 0
-16 -32 -12 -52 7 -19 17 -25 68 -8 78 15 9 12 48 -6 73 -15 22 -15 25 4 45
11 12 23 32 27 45 3 12 11 22 16 22 6 0 20 10 33 23 13 12 36 29 52 37 38 20
42 66 6 62 -15 -1 -22 2 -20 10 8 24 45 13 86 -24 27 -24 39 -43 36 -53 -3 -8
5 -34 19 -58 14 -23 28 -59 32 -79 8 -42 19 -55 55 -60 16 -2 26 -11 30 -28 5
-22 12 -25 55 -28 53 -3 94 16 81 37 -4 6 -25 19 -46 27 -21 9 -41 21 -43 29
-3 7 -22 16 -42 19 -24 5 -39 14 -45 29 -9 24 -35 115 -46 159 -3 15 -12 29
-20 32 -19 7 -18 52 1 68 9 7 24 21 35 32 23 22 50 15 50 -14 0 -11 7 -20 15
-20 22 0 19 19 -14 84 -26 50 -29 65 -25 114 3 31 8 60 11 66 9 14 38 -31 50
-77z m4040 37 c-3 -3 -12 -4 -19 -1 -8 3 -5 6 6 6 11 1 17 -2 13 -5z m-3032
-29 c22 -4 47 -15 55 -25 18 -21 75 -41 94 -34 17 7 27 -8 17 -25 -10 -15
-108 -25 -220 -22 -105 3 -161 27 -153 67 10 53 63 63 207 39z m-2423 -87 c37
-18 68 -38 68 -44 0 -6 -15 -18 -32 -27 -18 -10 -51 -31 -73 -47 -34 -24 -48
-28 -92 -26 -40 1 -59 8 -78 26 -22 21 -29 22 -45 12 -14 -8 -20 -9 -20 -1 0
6 -11 8 -29 4 -26 -6 -29 -4 -33 27 -3 18 -3 39 -1 46 6 14 69 16 78 2 4 -6
21 1 43 19 65 51 120 53 214 9z m698 1 c0 -6 14 -9 33 -7 28 3 32 0 35 -24 2
-16 -1 -28 -7 -28 -6 0 -11 -6 -11 -14 0 -8 -6 -21 -13 -28 -8 -7 -17 -26 -21
-41 -9 -36 15 -37 50 -2 14 14 29 25 34 25 28 0 -11 -87 -45 -100 -35 -13 -50
-86 -16 -75 11 3 22 1 26 -5 3 -5 17 -10 31 -10 13 0 24 -5 24 -12 0 -7 14
-27 32 -45 28 -29 30 -35 20 -58 -7 -14 -12 -46 -12 -71 0 -57 -19 -103 -56
-135 -16 -14 -34 -34 -40 -45 -6 -10 -20 -20 -31 -22 -15 -2 -19 -9 -16 -23 7
-25 -3 -24 -56 6 -58 34 -120 33 -178 0 -23 -14 -43 -32 -43 -39 0 -6 -6 -20
-13 -30 -11 -15 -17 -17 -35 -7 -27 15 -30 74 -7 162 9 33 13 64 10 69 -12 19
-67 10 -97 -15 -33 -28 -91 -35 -82 -11 3 9 -3 20 -15 28 -31 19 -28 71 5 97
15 12 33 21 41 21 8 0 31 7 51 16 100 43 142 76 142 109 0 12 12 31 26 41 43
31 90 84 120 135 16 27 37 51 47 55 9 3 17 14 17 24 0 10 7 25 15 34 8 8 15
19 15 25 0 6 5 11 10 11 6 0 10 -5 10 -11z m-2791 -41 c-9 -16 -14 -19 -17 -9
-2 7 2 17 9 22 20 13 21 11 8 -13z m782 -86 c-18 -38 -34 -14 -20 27 10 29 13
31 22 16 6 -11 5 -26 -2 -43z m-1031 -82 c0 -5 -5 -10 -11 -10 -5 0 -7 5 -4
10 3 6 8 10 11 10 2 0 4 -4 4 -10z m360 -5 c0 -8 -4 -15 -9 -15 -13 0 -22 16
-14 24 11 11 23 6 23 -9z m7115 -95 c4 -6 -7 -10 -25 -10 -18 0 -29 4 -25 10
3 6 15 10 25 10 10 0 22 -4 25 -10z m-6599 -307 c-9 -39 -66 -84 -66 -53 0 10
59 80 67 80 3 0 2 -12 -1 -27z m6269 -33 c0 -7 -6 -15 -12 -17 -8 -3 -13 4
-13 17 0 13 5 20 13 18 6 -3 12 -11 12 -18z m-595 -40 c0 -19 -41 -32 -83 -25
-40 7 -40 8 -16 21 28 15 99 19 99 4z m-5627 -106 c22 -30 16 -54 -13 -54 -13
0 -24 10 -31 27 -20 52 12 72 44 27z m-133 -19 c0 -9 -43 -55 -52 -55 -17 0
-7 28 15 43 22 16 37 21 37 12z m1990 -40 c7 -8 10 -22 6 -30 -4 -10 3 -17 22
-21 15 -3 43 -12 63 -20 33 -14 38 -14 72 6 20 12 37 28 37 34 0 7 23 18 53
24 111 24 112 24 159 -13 43 -34 43 -35 45 -102 1 -38 3 -88 5 -111 4 -51 -11
-69 -41 -52 -12 6 -21 15 -21 19 0 5 -9 7 -20 4 -13 -4 -30 2 -43 14 -12 12
-39 26 -60 33 -34 11 -40 10 -52 -6 -45 -63 -42 -61 -58 -39 -15 19 -15 19
-56 0 -22 -11 -41 -23 -41 -27 0 -5 -15 -8 -33 -8 -19 0 -36 -3 -40 -6 -11
-11 -96 -14 -103 -3 -3 6 -19 7 -35 4 -34 -8 -36 1 -11 44 13 24 14 35 6 48
-9 14 -7 24 9 45 13 17 20 44 21 73 1 25 6 45 12 45 6 0 25 14 42 30 36 34 44
36 62 15z m630 -25 c0 -5 20 -8 45 -7 58 2 74 -17 43 -50 -18 -20 -31 -23 -85
-22 -62 2 -87 11 -58 23 9 3 15 18 15 34 0 16 3 31 6 35 8 7 34 -3 34 -13z
m-3057 -2 c2 -7 2 -28 0 -45 -4 -24 -11 -33 -24 -33 -25 0 -32 16 -25 56 5 24
12 34 25 34 11 0 21 -6 24 -12z m337 -24 c-23 -27 -50 -37 -66 -23 -28 23 -21
27 65 37 11 2 11 -1 1 -14z m6948 -126 c32 -32 -11 -98 -64 -98 -28 0 -31 12
-7 31 9 8 22 29 30 47 14 35 22 39 41 20z m-4614 -127 c3 -5 -1 -14 -9 -21
-13 -10 -15 -9 -15 9 0 21 14 28 24 12z m-371 -59 c11 -15 37 -35 59 -44 36
-16 43 -16 68 -3 16 8 32 19 35 25 11 17 43 11 50 -10 9 -29 22 -25 28 9 6 30
34 48 50 32 5 -5 11 -29 13 -53 3 -41 22 -68 50 -68 15 0 26 -70 13 -86 -6 -7
-53 -33 -106 -59 -74 -35 -94 -49 -89 -61 5 -12 2 -15 -9 -10 -9 3 -26 -1 -38
-9 -12 -8 -50 -21 -85 -29 -34 -8 -104 -35 -154 -60 -95 -48 -137 -56 -158
-31 -10 13 -10 22 3 53 9 20 22 57 28 81 7 24 21 48 31 55 10 6 18 20 18 31 0
44 34 56 84 30 15 -8 29 -15 30 -15 0 0 -1 27 -2 60 -3 51 -1 61 15 66 91 31
106 67 36 88 -23 7 -29 17 -16 29 13 13 28 7 46 -21z m97 3 c0 -8 -7 -15 -15
-15 -16 0 -20 12 -8 23 11 12 23 8 23 -8z m1070 -15 c0 -5 -4 -10 -10 -10 -5
0 -10 5 -10 10 0 6 5 10 10 10 6 0 10 -4 10 -10z m-3600 -42 c0 -22 -27 -35
-42 -20 -8 8 -8 19 1 38 9 21 14 24 26 14 8 -7 15 -21 15 -32z m3428 -81 c20
-18 21 -23 8 -36 -12 -11 -20 -12 -40 -3 -13 6 -33 8 -44 5 -30 -7 -35 12 -10
41 26 29 49 27 86 -7z m-2975 -59 c-10 -21 -12 -21 -18 -5 -10 25 2 54 17 39
8 -8 8 -18 1 -34z m7161 20 c-15 -26 -48 -58 -61 -58 -22 0 -14 14 24 43 40
30 48 33 37 15z m-4706 -275 c10 -14 17 -15 41 -6 28 10 83 5 125 -12 10 -5
31 -27 46 -51 26 -41 40 -47 40 -17 0 34 93 93 146 93 17 0 45 -5 63 -11 20
-7 36 -8 44 -1 6 5 32 12 56 16 34 5 48 3 63 -11 18 -16 20 -16 47 0 36 21 63
21 121 1 25 -9 56 -13 70 -10 18 3 39 -4 69 -25 24 -16 55 -29 68 -29 13 0 26
-7 30 -17 3 -10 14 -27 25 -39 19 -21 18 -21 -11 -53 -17 -18 -32 -40 -35 -49
-7 -22 9 -49 18 -33 4 6 17 11 28 11 19 0 20 -4 15 -50 -7 -56 -31 -100 -57
-100 -9 0 -29 -9 -43 -20 -33 -26 -41 -25 -65 7 -19 26 -21 27 -59 14 -50 -17
-74 -9 -113 35 -29 33 -33 35 -59 24 -21 -8 -44 -8 -95 1 -37 6 -77 8 -89 5
-12 -3 -70 -3 -130 1 -84 5 -112 10 -129 24 -20 18 -22 18 -52 0 -35 -22 -155
-47 -180 -38 -9 4 -16 16 -16 27 0 24 -5 24 -60 5 -23 -8 -60 -15 -81 -15 -26
0 -42 -6 -51 -19 -8 -11 -25 -24 -38 -29 -54 -22 -109 -34 -123 -29 -24 9 -50
103 -42 151 4 22 8 59 10 81 3 43 18 106 30 124 4 8 18 10 35 6 22 -5 31 -2
40 14 21 40 56 49 175 45 90 -3 112 -7 123 -21z m-870 -99 c1 -10 -2 -26 -8
-34 -15 -23 -34 3 -26 35 8 29 30 29 34 -1z m-1594 -17 c14 -20 17 -30 9 -38
-15 -15 -53 23 -53 52 0 26 18 21 44 -14z m-361 -88 c-6 -6 -16 -8 -22 -5 -15
10 -14 43 2 49 17 6 33 -31 20 -44z m247 -151 c-6 -13 -19 -39 -28 -58 -20
-41 -42 -70 -54 -70 -4 0 -8 18 -8 40 0 30 7 48 31 75 36 41 77 50 59 13z
m-257 -24 c9 -10 -4 -34 -18 -34 -17 0 -28 17 -20 30 7 11 28 13 38 4z m355
-39 c18 -39 15 -92 -4 -99 -9 -4 -18 -5 -19 -4 -2 2 -6 31 -10 66 -6 50 -4 62
7 62 8 0 20 -11 26 -25z m2852 18 c142 -6 156 -8 175 -29 20 -22 21 -22 44 -3
30 25 58 24 71 -1 17 -32 3 -41 -58 -39 -32 2 -67 -2 -79 -9 -12 -7 -53 -14
-90 -17 -37 -2 -90 -7 -117 -11 -38 -5 -57 -3 -83 11 -26 14 -36 16 -45 7 -17
-17 -108 -15 -142 3 -15 8 -32 13 -36 10 -11 -7 -112 13 -124 25 -7 7 -5 16 6
26 12 12 42 18 109 21 52 2 96 6 98 9 6 6 94 5 271 -3z m-533 -29 c-3 -3 -12
-4 -19 -1 -8 3 -5 6 6 6 11 1 17 -2 13 -5z m-2623 -43 c21 -3 -19 -31 -44 -31
-28 0 -60 25 -40 32 9 3 60 2 84 -1z m56 -65 c0 -3 -4 -8 -10 -11 -5 -3 -10
-1 -10 4 0 6 5 11 10 11 6 0 10 -2 10 -4z m236 -333 c27 2 29 0 32 -39 4 -56
-18 -78 -67 -69 -82 14 -88 25 -45 88 19 28 29 35 38 28 7 -6 25 -9 42 -8z
m2394 -68 c0 -8 -7 -15 -15 -15 -8 0 -15 7 -15 15 0 8 7 15 15 15 8 0 15 -7
15 -15z m4005 -85 c3 -5 -3 -10 -14 -10 -12 0 -21 5 -21 10 0 6 6 10 14 10 8
0 18 -4 21 -10z m-6415 -22 c-1 -21 -27 -62 -33 -52 -9 16 5 64 19 64 8 0 14
-6 14 -12z m6488 -71 c2 -15 -1 -27 -6 -27 -16 0 -44 38 -37 50 12 20 40 6 43
-23z m-83 -57 c0 -28 -15 -35 -39 -17 -17 13 -17 14 -1 31 22 22 40 16 40 -14z
m-6420 -12 c3 -13 4 -52 2 -88 -2 -52 -5 -65 -19 -68 -34 -7 -45 76 -21 161 6
24 32 21 38 -5z m6150 -39 c10 -15 -1 -23 -20 -15 -9 3 -13 10 -10 16 8 13 22
13 30 -1z m-425 -179 c0 -5 -4 -10 -9 -10 -6 0 -13 5 -16 10 -3 6 1 10 9 10 9
0 16 -4 16 -10z m-5062 -55 c-11 -24 -44 -43 -56 -31 -8 8 39 55 55 55 10 1
10 -5 1 -24z m-58 -89 c0 -3 -4 -8 -10 -11 -5 -3 -10 -1 -10 4 0 6 5 11 10 11
6 0 10 -2 10 -4z m665 -16 c3 -5 1 -10 -4 -10 -6 0 -11 5 -11 10 0 6 2 10 4
10 3 0 8 -4 11 -10z m-730 -9 c3 -5 1 -12 -5 -16 -5 -3 -10 1 -10 9 0 18 6 21
15 7z m5015 -1 c0 -5 -4 -10 -10 -10 -5 0 -10 5 -10 10 0 6 5 10 10 10 6 0 10
-4 10 -10z m-24 -78 c-12 -11 -18 7 -10 30 l8 23 4 -23 c2 -13 1 -26 -2 -30z
m-4356 8 c0 -11 -7 -20 -15 -20 -15 0 -21 21 -8 33 12 13 23 7 23 -13z m210
-25 c0 -8 -4 -15 -10 -15 -5 0 -10 7 -10 15 0 8 5 15 10 15 6 0 10 -7 10 -15z
m-85 -5 c-3 -5 -10 -10 -16 -10 -5 0 -9 5 -9 10 0 6 7 10 16 10 8 0 12 -4 9
-10z m-100 -80 c18 -20 18 -21 -12 -53 -16 -17 -33 -40 -36 -49 -7 -19 -52
-25 -62 -8 -10 16 -22 12 -28 -10 -5 -21 -31 -27 -42 -9 -4 6 2 21 14 33 12
12 21 27 21 32 0 21 86 82 116 84 6 0 19 -9 29 -20z m4591 -57 c-10 -10 -19 5
-10 18 6 11 8 11 12 0 2 -7 1 -15 -2 -18z m-4705 -109 c13 -8 11 -51 -2 -60
-7 -4 -35 -8 -63 -10 -28 -2 -63 -6 -78 -10 -26 -6 -28 -4 -28 25 0 18 9 40
21 52 19 19 29 21 81 15 33 -3 64 -8 69 -12z m329 -23 c0 -11 5 -23 10 -26 17
-11 11 -71 -9 -89 -16 -15 -19 -15 -31 -1 -11 13 -10 22 3 50 16 34 16 35 -3
35 -20 0 -28 28 -13 43 14 15 43 7 43 -12z m4376 -62 c10 -17 -13 -36 -27 -22
-12 12 -4 33 11 33 5 0 12 -5 16 -11z m90 -45 c10 -14 18 -38 19 -54 1 -24 -3
-29 -27 -34 -17 -3 -32 -15 -38 -28 -6 -16 -9 -18 -9 -6 -1 11 -7 15 -21 11
-11 -3 -20 0 -20 6 0 8 -6 9 -17 3 -44 -21 -139 25 -145 70 -6 38 9 48 60 41
47 -6 47 -6 30 -34 -11 -17 -10 -23 10 -39 12 -10 22 -24 22 -31 0 -7 3 -9 7
-5 4 4 8 15 8 24 0 9 16 25 38 34 33 16 39 23 36 44 -1 6 21 23 28 24 2 0 10
-12 19 -26z m-4395 -82 c-11 -21 -48 -38 -58 -28 -10 9 18 55 36 59 24 5 34
-8 22 -31z m287 -6 c-2 -25 -8 -32 -29 -34 -35 -4 -43 20 -18 52 26 33 51 24
47 -18z m-80 -66 c7 -11 21 -20 31 -20 34 0 36 -22 5 -46 -30 -24 -44 -29
-132 -39 -35 -5 -63 -16 -83 -32 -23 -19 -33 -23 -42 -14 -6 6 -33 11 -60 11
l-50 0 7 43 c9 54 24 68 82 77 42 7 50 5 69 -16 18 -20 24 -21 36 -9 18 17
101 64 114 65 6 0 16 -9 23 -20z m-590 -258 c4 -23 -12 -29 -37 -13 -19 12 -6
43 16 39 10 -2 19 -13 21 -26z m192 -42 c0 -5 -7 -10 -15 -10 -8 0 -15 5 -15
10 0 6 7 10 15 10 8 0 15 -4 15 -10z m50 -76 c0 -8 -4 -12 -10 -9 -5 3 -10 10
-10 16 0 5 5 9 10 9 6 0 10 -7 10 -16z m228 -10 c3 -23 -60 -77 -85 -72 -10 2
-18 15 -20 36 -4 30 -2 32 25 32 16 0 35 7 42 15 16 20 34 14 38 -11z m-365 2
c9 -7 17 -18 17 -25 0 -16 -36 3 -44 24 -7 18 3 19 27 1z"/>
<path d="M5906 6561 c-3 -5 1 -14 9 -21 12 -10 18 -10 30 0 18 15 11 30 -15
30 -10 0 -21 -4 -24 -9z"/>
<path d="M4240 6410 c0 -5 9 -10 20 -10 11 0 20 5 20 10 0 6 -9 10 -20 10 -11
0 -20 -4 -20 -10z"/>
<path d="M4525 5764 c-20 -21 -15 -38 13 -42 18 -3 22 2 22 22 0 32 -14 40
-35 20z"/>
<path d="M6055 5600 c3 -5 15 -10 26 -10 10 0 19 5 19 10 0 6 -12 10 -26 10
-14 0 -23 -4 -19 -10z"/>
<path d="M4840 3895 c-14 -8 -33 -16 -42 -19 -22 -7 -24 -54 -3 -63 9 -3 24 2
35 12 11 10 28 15 40 12 18 -4 20 0 20 34 0 42 -8 46 -50 24z"/>
<path d="M4960 3830 c0 -5 7 -10 15 -10 8 0 15 5 15 10 0 6 -7 10 -15 10 -8 0
-15 -4 -15 -10z"/>
<path d="M5142 3748 c5 -15 57 -18 61 -3 1 6 -13 11 -32 13 -24 3 -32 0 -29
-10z"/>
<path d="M4130 4810 c0 -5 9 -10 20 -10 11 0 20 5 20 10 0 6 -9 10 -20 10 -11
0 -20 -4 -20 -10z"/>
<path d="M4097 4683 c-12 -12 -7 -53 6 -53 7 0 18 14 24 30 10 26 9 30 -6 30
-10 0 -21 -3 -24 -7z"/>
<path d="M4184 3917 c-7 -19 34 -110 46 -102 13 8 13 55 0 55 -5 0 -10 5 -10
10 0 6 7 10 17 10 14 0 14 2 -2 20 -21 23 -43 26 -51 7z"/>
<path d="M3920 3580 c0 -5 5 -10 10 -10 6 0 10 5 10 10 0 6 -4 10 -10 10 -5 0
-10 -4 -10 -10z"/>
<path d="M5000 8771 c-24 -45 1 -93 37 -72 10 6 15 11 11 11 -4 0 -3 12 2 26
18 45 -27 76 -50 35z"/>
<path d="M5987 8752 c-33 -20 -34 -28 -3 -34 18 -4 27 1 35 18 14 31 2 36 -32
16z"/>
<path d="M3368 8643 c-16 -8 -28 -19 -28 -24 0 -12 35 -3 66 16 11 7 34 15 50
18 19 3 14 4 -16 4 -25 1 -57 -6 -72 -14z"/>
<path d="M3125 8627 c-11 -9 -14 -16 -7 -21 15 -9 42 4 42 20 0 18 -11 18 -35
1z"/>
<path d="M3520 8632 c0 -12 19 -26 26 -19 2 2 -2 10 -11 17 -9 8 -15 8 -15 2z"/>
<path d="M3282 8578 c-16 -16 -15 -28 3 -28 8 0 15 2 15 4 0 2 3 11 6 20 7 19
-7 21 -24 4z"/>
<path d="M6530 8551 c0 -14 18 -23 31 -15 8 4 7 9 -2 15 -18 11 -29 11 -29 0z"/>
<path d="M6490 8453 c-13 -17 -17 -29 -10 -31 15 -5 37 14 43 38 7 28 -8 25
-33 -7z"/>
<path d="M7066 8035 c-8 -42 -30 -65 -61 -65 -14 0 -29 -9 -35 -20 -8 -15 -21
-20 -55 -20 -57 0 -60 -20 -7 -48 25 -13 36 -26 35 -39 -1 -13 7 -22 26 -30
32 -11 58 -2 46 17 -13 20 26 51 56 45 22 -5 27 -2 33 17 9 34 8 35 -15 41
-18 5 -20 11 -15 39 16 78 18 98 8 98 -5 0 -13 -16 -16 -35z"/>
<path d="M7238 7983 c-28 -7 -21 -18 12 -18 17 0 30 5 30 13 0 12 -10 13 -42
5z"/>
<path d="M7175 7870 c-3 -5 -1 -10 4 -10 6 0 11 5 11 10 0 6 -2 10 -4 10 -3 0
-8 -4 -11 -10z"/>
<path d="M7270 7835 c1 -26 2 -28 11 -12 8 14 8 22 0 30 -8 8 -11 3 -11 -18z"/>
<path d="M7856 7500 c10 -16 19 -28 21 -26 6 6 -20 56 -29 56 -5 0 -1 -13 8
-30z"/>
<path d="M7860 7355 c-8 -9 -8 -15 -2 -15 12 0 26 19 19 26 -2 2 -10 -2 -17
-11z"/>
<path d="M7750 7336 c0 -22 18 -29 58 -21 l37 7 -40 14 c-50 17 -55 17 -55 0z"/>
<path d="M1645 6186 c-53 -28 -60 -39 -30 -49 14 -5 25 -15 25 -23 0 -8 5 -14
10 -14 13 0 13 6 0 31 -9 16 -6 22 19 37 57 32 34 49 -24 18z"/>
<path d="M1531 6089 c-12 -19 -21 -47 -20 -64 0 -27 1 -26 16 15 8 25 20 51
25 58 6 7 8 15 5 18 -3 4 -15 -9 -26 -27z"/>
<path d="M1352 5818 c5 -32 28 -35 28 -4 0 17 -5 26 -16 26 -10 0 -14 -7 -12
-22z"/>
<path d="M9063 4803 c-38 -18 -43 -33 -10 -33 31 0 65 25 52 39 -7 7 -21 5
-42 -6z"/>
<path d="M3194 4439 c-10 -17 13 -36 27 -22 12 12 4 33 -11 33 -5 0 -12 -5
-16 -11z"/>
<path d="M5730 4269 c0 -5 5 -7 10 -4 6 3 10 8 10 11 0 2 -4 4 -10 4 -5 0 -10
-5 -10 -11z"/>
<path d="M9030 4009 c0 -5 5 -7 10 -4 6 3 10 8 10 11 0 2 -4 4 -10 4 -5 0 -10
-5 -10 -11z"/>
<path d="M1190 3779 c0 -62 -13 -76 -45 -53 -29 22 -48 18 -35 -6 13 -24 74
-52 96 -43 31 12 34 38 9 99 l-25 59 0 -56z"/>
<path d="M2882 3322 c-27 -45 -30 -57 -35 -179 -6 -109 -4 -133 8 -143 8 -7
15 -25 15 -41 0 -44 17 -78 44 -85 16 -4 29 -18 40 -48 9 -23 16 -47 16 -53 0
-6 7 -13 15 -17 8 -3 15 -12 15 -21 0 -30 29 -75 45 -69 11 5 15 22 15 68 0
113 -43 407 -76 521 -16 55 -49 115 -63 115 -5 0 -23 -22 -39 -48z"/>
<path d="M8588 2123 c7 -3 16 -2 19 1 4 3 -2 6 -13 5 -11 0 -14 -3 -6 -6z"/>
<path d="M4290 1850 c-13 -8 -12 -10 3 -10 9 0 17 5 17 10 0 12 -1 12 -20 0z"/>
<path d="M8264 1839 c-3 -5 -23 -9 -45 -7 -28 1 -45 -4 -62 -21 -14 -12 -37
-25 -52 -29 -16 -5 -35 -18 -44 -31 l-15 -23 64 7 c36 4 83 14 105 22 22 9 56
15 75 14 49 -1 65 11 50 36 -15 24 -67 46 -76 32z"/>
<path d="M4382 1628 c-7 -7 -12 -18 -12 -25 0 -18 -29 -16 -36 2 -8 19 -58 19
-74 0 -10 -12 -16 -13 -27 -4 -7 7 -15 10 -16 8 -2 -2 -11 -17 -21 -33 -16
-25 -20 -27 -30 -14 -18 25 -54 30 -106 17 -45 -11 -51 -17 -60 -48 -5 -20
-10 -44 -10 -55 0 -14 -6 -17 -25 -14 -21 5 -25 2 -20 -13 5 -14 2 -17 -9 -13
-19 7 -56 -13 -56 -31 0 -8 -11 -17 -24 -21 -32 -8 -45 -57 -22 -83 20 -22 20
-50 1 -78 -14 -20 -14 -23 5 -33 11 -6 20 -20 20 -31 0 -20 -4 -21 -46 -14
l-47 7 7 -28 c8 -32 68 -94 112 -117 18 -9 34 -27 38 -42 4 -14 11 -25 16 -25
5 0 25 -16 44 -35 20 -19 40 -35 45 -35 6 0 26 -25 46 -55 21 -33 42 -55 53
-55 27 0 42 -20 42 -55 0 -20 3 -26 9 -16 14 23 51 -4 51 -38 0 -20 8 -34 25
-45 19 -13 25 -25 25 -54 1 -44 19 -72 48 -72 12 0 27 -7 34 -15 13 -16 16
-19 73 -72 34 -32 36 -32 115 -29 55 3 87 9 98 19 9 9 40 17 67 19 42 3 50 6
48 22 -3 42 35 93 87 117 33 15 50 29 50 41 0 10 3 17 8 17 4 -1 24 -1 46 0
35 1 38 3 34 24 -4 20 1 25 34 34 21 6 41 6 44 2 3 -5 14 -5 24 1 49 26 54 -6
8 -50 -18 -17 -41 -30 -52 -29 -42 3 -43 2 -33 -59 15 -84 11 -154 -7 -164 -9
-5 -16 -15 -16 -22 0 -7 -11 -23 -25 -36 -17 -16 -24 -32 -22 -54 2 -25 -2
-32 -21 -34 -12 -2 -27 -12 -32 -22 -15 -27 -116 -63 -185 -65 -33 -2 -70 -6
-82 -10 -15 -5 -23 -3 -23 4 0 6 9 11 21 11 11 0 17 5 14 10 -14 22 -98 -2
-101 -29 -1 -6 -2 -15 -3 -19 0 -5 -19 -16 -40 -25 -22 -10 -46 -29 -55 -42
l-16 -25 325 0 c280 0 325 2 325 15 0 8 -14 21 -30 30 -26 13 -29 20 -24 42 5
19 2 30 -11 39 -9 7 -15 18 -13 25 3 8 8 8 18 -3 8 -8 29 -13 45 -12 17 1 35
3 42 3 6 1 19 9 28 18 16 15 16 18 -6 33 l-22 18 22 11 c12 7 19 16 16 21 -3
5 -1 11 3 14 10 6 47 -30 55 -54 4 -12 6 -11 12 5 9 24 63 75 81 76 8 1 19 2
26 3 7 0 23 17 36 36 13 19 37 42 54 50 38 18 48 40 20 40 -20 0 -62 47 -62
68 0 5 -7 15 -15 22 -12 10 -13 16 -4 24 8 8 13 8 16 -1 3 -7 12 -13 20 -13
13 0 13 3 3 15 -10 13 -7 17 24 30 24 10 42 28 56 55 12 24 30 42 44 46 28 7
56 61 56 109 0 18 5 37 10 40 6 3 10 14 10 24 0 10 7 24 15 31 8 7 15 21 15
31 0 22 -1 22 -33 10 -20 -8 -32 -5 -58 15 -38 28 -44 50 -13 46 12 -1 26 4
33 12 15 18 10 52 -7 49 -7 -2 -12 2 -12 7 0 17 52 11 66 -7 12 -16 13 -16 8
7 -3 14 -6 34 -7 45 -2 15 -11 21 -37 25 -31 4 -35 9 -38 37 -2 24 2 34 17 43
26 13 61 -3 61 -28 0 -14 2 -15 10 -2 5 9 5 19 -1 26 -6 8 3 19 31 38 22 14
43 26 46 26 4 0 24 18 46 39 22 23 52 42 70 46 57 11 68 16 68 29 0 20 30 43
97 76 34 16 64 34 68 39 3 6 14 11 23 11 15 0 62 78 62 102 0 17 -49 58 -69
58 -20 0 -22 -4 -16 -30 7 -34 5 -35 -41 -18 -29 10 -35 9 -70 -20 -22 -18
-61 -50 -89 -72 -27 -22 -60 -40 -74 -40 -13 0 -34 -10 -47 -22 -42 -42 -82
-68 -103 -68 -20 0 -75 -25 -113 -52 -14 -10 -20 -8 -36 12 l-19 23 -21 -21
c-12 -12 -29 -22 -38 -22 -13 0 -15 7 -9 41 6 32 3 43 -11 53 -12 9 -14 15 -6
20 15 9 16 76 1 76 -6 0 -20 -5 -31 -11 -11 -6 -48 -12 -82 -14 -33 -1 -69 -6
-78 -10 -13 -5 -22 1 -35 23 -16 27 -22 30 -72 31 -51 0 -64 7 -74 35 -5 13
-64 -12 -71 -30 -8 -22 -51 -17 -83 10 -48 40 -198 102 -208 85 -10 -15 -65
-11 -71 6 -8 19 -143 22 -162 3z m673 -168 c-3 -6 1 -13 9 -16 20 -8 21 -34 1
-34 -8 0 -15 6 -15 14 0 8 -3 21 -6 30 -3 9 -1 16 6 16 6 0 8 -5 5 -10z m175
-18 c0 -13 -12 -22 -22 -16 -10 6 -1 24 13 24 5 0 9 -4 9 -8z m110 -102 c0 -5
-7 -10 -15 -10 -8 0 -15 5 -15 10 0 6 7 10 15 10 8 0 15 -4 15 -10z m-70 -25
c0 -18 -5 -25 -20 -25 -22 0 -26 20 -8 38 19 19 28 14 28 -13z m224 -111 c28
-11 17 -24 -21 -24 -35 0 -36 1 -17 15 23 17 19 16 38 9z m16 -120 c0 -9 -5
-14 -12 -12 -18 6 -21 28 -4 28 9 0 16 -7 16 -16z"/>
<path d="M3766 1465 c-3 -9 1 -18 9 -21 9 -4 15 -19 15 -36 0 -23 4 -29 18
-26 9 2 17 8 17 15 0 6 3 15 8 19 4 4 7 15 7 25 0 20 -4 24 -41 33 -19 4 -29
1 -33 -9z"/>
<path d="M3755 1219 c-4 -6 -3 -15 3 -21 6 -6 11 -4 15 6 7 18 -9 31 -18 15z"/>
<path d="M1990 1064 c0 -10 28 -34 39 -34 6 0 11 5 11 10 0 6 1 13 3 16 1 4
-10 8 -25 10 -16 1 -28 0 -28 -2z"/>
<path d="M4970 530 c-12 -7 -12 -12 -3 -21 15 -15 26 -7 21 15 -2 11 -7 13
-18 6z"/>
<path d="M5270 83 l0 -46 28 24 c15 13 28 25 30 26 11 5 -22 43 -38 43 -17 0
-20 -7 -20 -47z"/>
<path d="M5115 15 c-29 -13 -27 -13 40 -13 69 0 70 0 35 13 -44 17 -39 17 -75
0z"/>
</g>
</svg>
